Pontano Sans-700.ufo
<glyph name="exclam" format="1">
  <advance width="428"/>
  <unicode hex="0021"/>
  <outline>
    <contour>
      <point x="112" y="0" type="line"/>
      <point x="340" y="0" type="line"/>
      <point x="340" y="223" type="line"/>
      <point x="112" y="223" type="line"/>
    </contour>
    <contour>
      <point x="180" y="353" type="line"/>
      <point x="270" y="353" type="line"/>
      <point x="355" y="1464" type="line"/>
      <point x="80" y="1464" type="line"/>
    </contour>
  </outline>
</glyph>
<glyph name="percent" format="1">
  <advance width="1677"/>
  <unicode hex="0025"/>
  <outline>
    <contour>
      <point x="356" y="921" type="curve"/>
      <point x="261" y="921"/>
      <point x="211" y="1008"/>
      <point x="211" y="1124" type="curve"/>
      <point x="211" y="1231"/>
      <point x="266" y="1322"/>
      <point x="356" y="1322" type="curve"/>
      <point x="449" y="1322"/>
      <point x="500" y="1235"/>
      <point x="500" y="1123" type="curve"/>
      <point x="500" y="1008"/>
      <point x="448" y="921"/>
    </contour>
    <contour>
      <point x="357" y="775" type="curve"/>
      <point x="558" y="775"/>
      <point x="671" y="946"/>
      <point x="671" y="1120" type="curve"/>
      <point x="671" y="1292"/>
      <point x="558" y="1466"/>
      <point x="357" y="1466" type="curve"/>
      <point x="154" y="1466"/>
      <point x="39" y="1291"/>
      <point x="39" y="1118" type="curve"/>
      <point x="39" y="945"/>
      <point x="152" y="775"/>
    </contour>
    <contour>
      <point x="283" y="-35" type="line"/>
      <point x="1518" y="1395" type="line"/>
      <point x="1402" y="1505" type="line"/>
      <point x="166" y="76" type="line"/>
    </contour>
    <contour>
      <point x="1275" y="118" type="curve"/>
      <point x="1179" y="118"/>
      <point x="1129" y="206"/>
      <point x="1129" y="322" type="curve"/>
      <point x="1129" y="429"/>
      <point x="1185" y="520"/>
      <point x="1275" y="520" type="curve"/>
      <point x="1367" y="520"/>
      <point x="1418" y="433"/>
      <point x="1418" y="320" type="curve"/>
      <point x="1418" y="206"/>
      <point x="1366" y="118"/>
    </contour>
    <contour>
      <point x="1276" y="-28" type="curve"/>
      <point x="1476" y="-28"/>
      <point x="1590" y="144"/>
      <point x="1590" y="318" type="curve"/>
      <point x="1590" y="490"/>
      <point x="1476" y="664"/>
      <point x="1276" y="664" type="curve"/>
      <point x="1073" y="664"/>
      <point x="957" y="489"/>
      <point x="957" y="316" type="curve"/>
      <point x="957" y="143"/>
      <point x="1070" y="-28"/>
    </contour>
  </outline>
</glyph>
<glyph name="ampersand" format="1">
  <advance width="1430"/>
  <unicode hex="0026"/>
  <outline>
    <contour>
      <point x="1277" y="-37" type="line"/>
      <point x="1420" y="91" type="line"/>
      <point x="599" y="1012" type="line" smooth="yes"/>
      <point x="542" y="1075"/>
      <point x="518" y="1141"/>
      <point x="527" y="1208" type="curve" smooth="yes"/>
      <point x="533" y="1254"/>
      <point x="581" y="1307"/>
      <point x="678" y="1307" type="curve" smooth="yes"/>
      <point x="769" y="1307"/>
      <point x="816" y="1252"/>
      <point x="823" y="1205" type="curve" smooth="yes"/>
      <point x="831" y="1147"/>
      <point x="825" y="1045"/>
      <point x="522" y="928" type="curve" smooth="yes"/>
      <point x="230" y="815"/>
      <point x="103" y="668"/>
      <point x="98" y="422" type="curve" smooth="yes"/>
      <point x="93" y="174"/>
      <point x="292" y="-25"/>
      <point x="582" y="-25" type="curve" smooth="yes"/>
      <point x="851" y="-25"/>
      <point x="1234" y="78"/>
      <point x="1335" y="776" type="curve"/>
      <point x="1144" y="803" type="line"/>
      <point x="1065" y="283"/>
      <point x="837" y="160"/>
      <point x="617" y="160" type="curve" smooth="yes"/>
      <point x="411" y="160"/>
      <point x="333" y="272"/>
      <point x="327" y="422" type="curve" smooth="yes"/>
      <point x="321" y="560"/>
      <point x="379" y="678"/>
      <point x="640" y="803" type="curve" smooth="yes"/>
      <point x="967" y="959"/>
      <point x="1025" y="1041"/>
      <point x="1025" y="1211" type="curve" smooth="yes"/>
      <point x="1025" y="1393"/>
      <point x="861" y="1491"/>
      <point x="673" y="1491" type="curve" smooth="yes"/>
      <point x="488" y="1491"/>
      <point x="326" y="1392"/>
      <point x="315" y="1210" type="curve" smooth="yes"/>
      <point x="308" y="1114"/>
      <point x="330" y="1038"/>
      <point x="402" y="957" type="curve" smooth="yes"/>
    </contour>
  </outline>
</glyph>
<glyph name="parenright" format="1">
  <advance width="602"/>
  <unicode hex="0029"/>
  <outline>
    <contour>
      <point x="32" y="-181" type="line"/>
      <point x="323" y="-112"/>
      <point x="566" y="164"/>
      <point x="566" y="703" type="curve"/>
      <point x="566" y="1242"/>
      <point x="323" y="1518"/>
      <point x="32" y="1587" type="curve"/>
      <point x="-11" y="1454" type="line"/>
      <point x="209" y="1381"/>
      <point x="327" y="1117"/>
      <point x="327" y="703" type="curve"/>
      <point x="327" y="289"/>
      <point x="209" y="25"/>
      <point x="-11" y="-48" type="curve"/>
    </contour>
  </outline>
</glyph>
<glyph name="one" format="1">
  <advance width="946"/>
  <unicode hex="0031"/>
  <outline>
    <contour>
      <point x="432" y="0" type="line"/>
      <point x="663" y="0" type="line"/>
      <point x="663" y="1464" type="line"/>
      <point x="463" y="1464" type="line"/>
      <point x="136" y="1331" type="line"/>
      <point x="204" y="1148" type="line"/>
      <point x="432" y="1248" type="line"/>
    </contour>
  </outline>
</glyph>
<glyph name="two" format="1">
  <advance width="1246"/>
  <unicode hex="0032"/>
  <outline>
    <contour>
      <point x="149" y="0" type="curve"/>
      <point x="1084" y="0" type="line"/>
      <point x="1084" y="183" type="line"/>
      <point x="412" y="183" type="line"/>
      <point x="617" y="483"/>
      <point x="1096" y="607"/>
      <point x="1082" y="1042" type="curve" smooth="yes"/>
      <point x="1073" y="1344"/>
      <point x="885" y="1489"/>
      <point x="615" y="1489" type="curve" smooth="yes"/>
      <point x="390" y="1489"/>
      <point x="224" y="1397"/>
      <point x="105" y="1141" type="curve"/>
      <point x="307" y="1060" type="line"/>
      <point x="391" y="1224"/>
      <point x="482" y="1305"/>
      <point x="627" y="1305" type="curve" smooth="yes"/>
      <point x="770" y="1305"/>
      <point x="849" y="1194"/>
      <point x="849" y="1047" type="curve" smooth="yes"/>
      <point x="849" y="587"/>
      <point x="152" y="562"/>
    </contour>
  </outline>
</glyph>
<glyph name="three" format="1">
  <advance width="1269"/>
  <unicode hex="0033"/>
  <outline>
    <contour>
      <point x="622" y="-24" type="curve" smooth="yes"/>
      <point x="934" y="-25"/>
      <point x="1100" y="197"/>
      <point x="1099" y="398" type="curve" smooth="yes"/>
      <point x="1099" y="576"/>
      <point x="1035" y="752"/>
      <point x="823" y="822" type="curve"/>
      <point x="984" y="885"/>
      <point x="1028" y="1017"/>
      <point x="1028" y="1157" type="curve" smooth="yes"/>
      <point x="1028" y="1356"/>
      <point x="865" y="1489"/>
      <point x="610" y="1489" type="curve" smooth="yes"/>
      <point x="440" y="1489"/>
      <point x="298" y="1412"/>
      <point x="198" y="1256" type="curve"/>
      <point x="364" y="1156" type="line"/>
      <point x="444" y="1274"/>
      <point x="516" y="1307"/>
      <point x="617" y="1307" type="curve" smooth="yes"/>
      <point x="732" y="1307"/>
      <point x="805" y="1237"/>
      <point x="805" y="1140" type="curve" smooth="yes"/>
      <point x="805" y="1006"/>
      <point x="776" y="899"/>
      <point x="502" y="899" type="curve"/>
      <point x="502" y="722" type="line"/>
      <point x="725" y="722"/>
      <point x="875" y="661"/>
      <point x="865" y="396" type="curve" smooth="yes"/>
      <point x="861" y="269"/>
      <point x="792" y="154"/>
      <point x="604" y="161" type="curve" smooth="yes"/>
      <point x="458" y="167"/>
      <point x="406" y="252"/>
      <point x="359" y="381" type="curve"/>
      <point x="164" y="316" type="line"/>
      <point x="225" y="68"/>
      <point x="392" y="-23"/>
    </contour>
  </outline>
</glyph>
<glyph name="seven" format="1">
  <advance width="1246"/>
  <unicode hex="0037"/>
  <outline>
    <contour>
      <point x="569" y="-1" type="line"/>
      <point x="1078" y="1287" type="line"/>
      <point x="1078" y="1464" type="line"/>
      <point x="193" y="1464" type="line"/>
      <point x="209" y="1285" type="line"/>
      <point x="835" y="1285" type="line"/>
      <point x="317" y="0" type="line"/>
    </contour>
  </outline>
</glyph>
<glyph name="question" format="1">
  <advance width="1010"/>
  <unicode hex="003F"/>
  <outline>
    <contour>
      <point x="327" y="358" type="curve"/>
      <point x="531" y="358" type="line"/>
      <point x="732" y="709"/>
      <point x="941" y="805"/>
      <point x="941" y="1094" type="curve" smooth="yes"/>
      <point x="941" y="1298"/>
      <point x="816" y="1491"/>
      <point x="497" y="1491" type="curve" smooth="yes"/>
      <point x="326" y="1491"/>
      <point x="154" y="1440"/>
      <point x="35" y="1251" type="curve"/>
      <point x="192" y="1138" type="line"/>
      <point x="222" y="1184"/>
      <point x="310" y="1307"/>
      <point x="488" y="1307" type="curve" smooth="yes"/>
      <point x="649" y="1307"/>
      <point x="711" y="1227"/>
      <point x="711" y="1089" type="curve" smooth="yes"/>
      <point x="711" y="843"/>
      <point x="526" y="773"/>
    </contour>
    <contour>
      <point x="310" y="0" type="line"/>
      <point x="563" y="0" type="line"/>
      <point x="563" y="238" type="line"/>
      <point x="310" y="238" type="line"/>
    </contour>
  </outline>
</glyph>
<glyph name="D" format="1">
  <advance width="1468"/>
  <unicode hex="0044"/>
  <outline>
    <contour>
      <point x="709" y="1464" type="move" name="top"/>
    </contour>
    <contour>
      <point x="365" y="176" type="line"/>
      <point x="365" y="1288" type="line"/>
      <point x="686" y="1288" type="line" smooth="yes"/>
      <point x="1026" y="1288"/>
      <point x="1122" y="1126"/>
      <point x="1122" y="737" type="curve" smooth="yes"/>
      <point x="1122" y="293"/>
      <point x="997" y="176"/>
      <point x="625" y="176" type="curve" smooth="yes"/>
    </contour>
    <contour>
      <point x="134" y="0" type="line"/>
      <point x="690" y="0" type="line" smooth="yes"/>
      <point x="1168" y="0"/>
      <point x="1354" y="215"/>
      <point x="1354" y="738" type="curve" smooth="yes"/>
      <point x="1354" y="1280"/>
      <point x="1135" y="1464"/>
      <point x="688" y="1464" type="curve" smooth="yes"/>
      <point x="134" y="1464" type="line"/>
    </contour>
  </outline>
</glyph>
<glyph name="E" format="1">
  <advance width="1234"/>
  <unicode hex="0045"/>
  <outline>
    <contour>
      <point x="690" y="1464" type="move" name="top"/>
    </contour>
    <contour>
      <point x="134" y="0" type="line"/>
      <point x="1164" y="0" type="line"/>
      <point x="1164" y="172" type="line"/>
      <point x="365" y="172" type="line"/>
      <point x="365" y="690" type="line"/>
      <point x="1052" y="690" type="line"/>
      <point x="1052" y="866" type="line"/>
      <point x="365" y="866" type="line"/>
      <point x="365" y="1292" type="line"/>
      <point x="1153" y="1292" type="line"/>
      <point x="1153" y="1464" type="line"/>
      <point x="134" y="1464" type="line"/>
    </contour>
  </outline>
</glyph>
<glyph name="H" format="1">
  <advance width="1514"/>
  <unicode hex="0048"/>
  <outline>
    <contour>
      <point x="783" y="1464" type="move" name="top"/>
    </contour>
    <contour>
      <point x="134" y="0" type="line"/>
      <point x="365" y="0" type="line"/>
      <point x="365" y="661" type="line"/>
      <point x="1150" y="661" type="line"/>
      <point x="1150" y="0" type="line"/>
      <point x="1381" y="0" type="line"/>
      <point x="1381" y="1464" type="line"/>
      <point x="1150" y="1464" type="line"/>
      <point x="1150" y="845" type="line"/>
      <point x="365" y="845" type="line"/>
      <point x="365" y="1464" type="line"/>
      <point x="134" y="1464" type="line"/>
    </contour>
  </outline>
</glyph>
<glyph name="K" format="1">
  <advance width="1307"/>
  <unicode hex="004B"/>
  <outline>
    <contour>
      <point x="686" y="1464" type="move" name="top"/>
    </contour>
    <contour>
      <point x="668" y="0" type="move" name="bot"/>
    </contour>
    <contour>
      <point x="134" y="0" type="line"/>
      <point x="365" y="0" type="line"/>
      <point x="365" y="536" type="line"/>
      <point x="580" y="759" type="line"/>
      <point x="1056" y="0" type="line"/>
      <point x="1317" y="0" type="line"/>
      <point x="738" y="922" type="line"/>
      <point x="1265" y="1464" type="line"/>
      <point x="987" y="1464" type="line"/>
      <point x="365" y="809" type="line"/>
      <point x="365" y="1464" type="line"/>
      <point x="134" y="1464" type="line"/>
    </contour>
  </outline>
</glyph>
<glyph name="L" format="1">
  <advance width="1085"/>
  <unicode hex="004C"/>
  <outline>
    <contour>
      <point x="702" y="1474" type="move" name="top"/>
    </contour>
    <contour>
      <point x="562" y="1023" type="move" name="caron.alt"/>
    </contour>
    <contour>
      <point x="621" y="0" type="move" name="bot"/>
    </contour>
    <contour>
      <point x="134" y="0" type="line"/>
      <point x="1089" y="0" type="line"/>
      <point x="1089" y="172" type="line"/>
      <point x="365" y="172" type="line"/>
      <point x="365" y="1464" type="line"/>
      <point x="134" y="1464" type="line"/>
    </contour>
  </outline>
</glyph>
<glyph name="N" format="1">
  <advance width="1496"/>
  <unicode hex="004E"/>
  <outline>
    <contour>
      <point x="764" y="1463" type="move" name="top"/>
    </contour>
    <contour>
      <point x="710" y="0" type="move" name="bot"/>
    </contour>
    <contour>
      <point x="134" y="0" type="line"/>
      <point x="340" y="0" type="line"/>
      <point x="340" y="1191" type="line"/>
      <point x="1162" y="0" type="line"/>
      <point x="1362" y="0" type="line"/>
      <point x="1362" y="1464" type="line"/>
      <point x="1163" y="1464" type="line"/>
      <point x="1163" y="352" type="line"/>
      <point x="386" y="1464" type="line"/>
      <point x="134" y="1464" type="line"/>
    </contour>
  </outline>
</glyph>
<glyph name="U" format="1">
  <advance width="1399"/>
  <unicode hex="0055"/>
  <outline>
    <contour>
      <point x="700" y="1464" type="move" name="top"/>
    </contour>
    <contour>
      <point x="803" y="0" type="move" name="ogonek"/>
    </contour>
    <contour>
      <point x="694" y="-24" type="curve" smooth="yes"/>
      <point x="1082" y="-24"/>
      <point x="1284" y="162"/>
      <point x="1284" y="582" type="curve" smooth="yes"/>
      <point x="1284" y="1464" type="line"/>
      <point x="1053" y="1464" type="line"/>
      <point x="1053" y="602" type="line" smooth="yes"/>
      <point x="1053" y="307"/>
      <point x="986" y="159"/>
      <point x="700" y="159" type="curve" smooth="yes"/>
      <point x="412" y="159"/>
      <point x="346" y="313"/>
      <point x="346" y="602" type="curve" smooth="yes"/>
      <point x="346" y="1464" type="line"/>
      <point x="115" y="1464" type="line"/>
      <point x="115" y="575" type="line" smooth="yes"/>
      <point x="115" y="152"/>
      <point x="321" y="-24"/>
    </contour>
  </outline>
</glyph>
<glyph name="W" format="1">
  <advance width="1877"/>
  <unicode hex="0057"/>
  <outline>
    <contour>
      <point x="960" y="1464" type="move" name="top"/>
    </contour>
    <contour>
      <point x="414" y="0" type="line"/>
      <point x="592" y="0" type="line"/>
      <point x="941" y="1019" type="line"/>
      <point x="1236" y="0" type="line"/>
      <point x="1434" y="0" type="line"/>
      <point x="1880" y="1464" type="line"/>
      <point x="1661" y="1464" type="line"/>
      <point x="1349" y="341" type="line"/>
      <point x="1038" y="1464" type="line"/>
      <point x="876" y="1464" type="line"/>
      <point x="513" y="369" type="line"/>
      <point x="238" y="1464" type="line"/>
      <point x="-3" y="1464" type="line"/>
    </contour>
  </outline>
</glyph>
<glyph name="X" format="1">
  <advance width="1315"/>
  <unicode hex="0058"/>
  <outline>
    <contour>
      <point x="-6" y="0" type="line"/>
      <point x="257" y="0" type="line"/>
      <point x="652" y="571" type="line"/>
      <point x="1048" y="0" type="line"/>
      <point x="1321" y="0" type="line"/>
      <point x="790" y="768" type="line"/>
      <point x="1280" y="1464" type="line"/>
      <point x="1019" y="1464" type="line"/>
      <point x="662" y="953" type="line"/>
      <point x="308" y="1464" type="line"/>
      <point x="33" y="1464" type="line"/>
      <point x="524" y="755" type="line"/>
    </contour>
  </outline>
</glyph>
<glyph name="Z" format="1">
  <advance width="1176"/>
  <unicode hex="005A"/>
  <outline>
    <contour>
      <point x="645" y="1464" type="move" name="top"/>
    </contour>
    <contour>
      <point x="41" y="0" type="line"/>
      <point x="1134" y="0" type="line"/>
      <point x="1141" y="173" type="line"/>
      <point x="335" y="173" type="line"/>
      <point x="1137" y="1318" type="line"/>
      <point x="1137" y="1464" type="line"/>
      <point x="124" y="1464" type="line"/>
      <point x="124" y="1290" type="line"/>
      <point x="839" y="1290" type="line"/>
      <point x="41" y="156" type="line"/>
    </contour>
  </outline>
</glyph>
<glyph name="asciicircum" format="1">
  <advance width="1053"/>
  <unicode hex="005E"/>
  <outline>
    <contour>
      <point x="69" y="100" type="line"/>
      <point x="286" y="100" type="line"/>
      <point x="519" y="750" type="line"/>
      <point x="752" y="100" type="line"/>
      <point x="993" y="100" type="line"/>
      <point x="630" y="999" type="line"/>
      <point x="429" y="999" type="line"/>
    </contour>
  </outline>
</glyph>
<glyph name="f" format="1">
  <advance width="643"/>
  <unicode hex="0066"/>
  <outline>
    <contour>
      <point x="399" y="1475" type="move" name="top"/>
    </contour>
    <contour>
      <point x="192" y="0" type="line"/>
      <point x="414" y="0" type="line"/>
      <point x="414" y="861" type="line"/>
      <point x="633" y="861" type="line"/>
      <point x="633" y="1023" type="line"/>
      <point x="414" y="1023" type="line"/>
      <point x="413" y="1143" type="line" smooth="yes"/>
      <point x="412" y="1279"/>
      <point x="426" y="1304"/>
      <point x="512" y="1304" type="curve" smooth="yes"/>
      <point x="542" y="1304"/>
      <point x="584" y="1292"/>
      <point x="617" y="1275" type="curve"/>
      <point x="673" y="1423" type="line"/>
      <point x="627" y="1448"/>
      <point x="541" y="1474"/>
      <point x="485" y="1474" type="curve" smooth="yes"/>
      <point x="304" y="1474"/>
      <point x="192" y="1425"/>
      <point x="192" y="1134" type="curve" smooth="yes"/>
      <point x="192" y="1023" type="line"/>
      <point x="17" y="1023" type="line"/>
      <point x="17" y="861" type="line"/>
      <point x="192" y="861" type="line"/>
    </contour>
  </outline>
</glyph>
<glyph name="g" format="1">
  <advance width="1166"/>
  <unicode hex="0067"/>
  <outline>
    <contour>
      <point x="551" y="1023" type="move" name="top"/>
    </contour>
    <contour>
      <point x="568" y="-483" type="curve" smooth="yes"/>
      <point x="853" y="-484"/>
      <point x="1054" y="-344"/>
      <point x="1054" y="22" type="curve" smooth="yes"/>
      <point x="1054" y="1023" type="line"/>
      <point x="865" y="1023" type="line"/>
      <point x="844" y="891" type="line"/>
      <point x="781" y="982"/>
      <point x="683" y="1047"/>
      <point x="547" y="1047" type="curve" smooth="yes"/>
      <point x="283" y="1047"/>
      <point x="89" y="865"/>
      <point x="89" y="524" type="curve" smooth="yes"/>
      <point x="89" y="177"/>
      <point x="262" y="-24"/>
      <point x="548" y="-24" type="curve" smooth="yes"/>
      <point x="667" y="-24"/>
      <point x="765" y="15"/>
      <point x="832" y="90" type="curve"/>
      <point x="832" y="27" type="line" smooth="yes"/>
      <point x="832" y="-187"/>
      <point x="778" y="-313"/>
      <point x="572" y="-316" type="curve" smooth="yes"/>
      <point x="413" y="-319"/>
      <point x="327" y="-254"/>
      <point x="266" y="-176" type="curve"/>
      <point x="146" y="-300" type="line"/>
      <point x="225" y="-399"/>
      <point x="382" y="-483"/>
    </contour>
    <contour>
      <point x="562" y="133" type="curve" smooth="yes"/>
      <point x="391" y="133"/>
      <point x="316" y="261"/>
      <point x="314" y="521" type="curve" smooth="yes"/>
      <point x="313" y="754"/>
      <point x="403" y="890"/>
      <point x="561" y="890" type="curve" smooth="yes"/>
      <point x="689" y="890"/>
      <point x="833" y="852"/>
      <point x="833" y="476" type="curve" smooth="yes"/>
      <point x="833" y="267"/>
      <point x="780" y="133"/>
    </contour>
  </outline>
</glyph>
<glyph name="i" format="1">
  <advance width="477"/>
  <unicode hex="0069"/>
  <outline>
    <contour>
      <point x="136" y="0" type="line"/>
      <point x="358" y="0" type="line"/>
      <point x="358" y="1023" type="line"/>
      <point x="136" y="1023" type="line"/>
    </contour>
    <contour>
      <point x="131" y="1234" type="line"/>
      <point x="360" y="1234" type="line"/>
      <point x="360" y="1478" type="line"/>
      <point x="131" y="1478" type="line"/>
    </contour>
  </outline>
</glyph>
<glyph name="r" format="1">
  <advance width="682"/>
  <unicode hex="0072"/>
  <outline>
    <contour>
      <point x="454" y="1023" type="move" name="top"/>
    </contour>
    <contour>
      <point x="264" y="0" type="move" name="bot"/>
    </contour>
    <contour>
      <point x="121" y="0" type="line"/>
      <point x="344" y="0" type="line"/>
      <point x="344" y="494" type="line"/>
      <point x="343" y="680"/>
      <point x="426" y="839"/>
      <point x="645" y="839" type="curve"/>
      <point x="645" y="1036" type="line"/>
      <point x="516" y="1036"/>
      <point x="417" y="987"/>
      <point x="344" y="870" type="curve"/>
      <point x="344" y="1023" type="line"/>
      <point x="121" y="1023" type="line"/>
    </contour>
  </outline>
</glyph>
<glyph name="t" format="1">
  <advance width="699"/>
  <unicode hex="0074"/>
  <outline>
    <contour>
      <point x="303" y="1286" type="move" name="top"/>
    </contour>
    <contour>
      <point x="355" y="1023" type="move" name="caron.alt"/>
    </contour>
    <contour>
      <point x="399" y="0" type="move" name="bot"/>
    </contour>
    <contour>
      <point x="488" y="-16" type="curve" smooth="yes"/>
      <point x="553" y="-16"/>
      <point x="623" y="0"/>
      <point x="693" y="32" type="curve"/>
      <point x="657" y="181" type="line"/>
      <point x="608" y="161"/>
      <point x="560" y="149"/>
      <point x="527" y="149" type="curve" smooth="yes"/>
      <point x="454" y="149"/>
      <point x="400" y="190"/>
      <point x="400" y="318" type="curve" smooth="yes"/>
      <point x="400" y="872" type="line"/>
      <point x="625" y="872" type="line"/>
      <point x="625" y="1023" type="line"/>
      <point x="400" y="1023" type="line"/>
      <point x="400" y="1395" type="line"/>
      <point x="187" y="1339" type="line"/>
      <point x="178" y="1023" type="line"/>
      <point x="36" y="1023" type="line"/>
      <point x="36" y="872" type="line"/>
      <point x="177" y="872" type="line"/>
      <point x="177" y="294" type="line" smooth="yes"/>
      <point x="177" y="58"/>
      <point x="330" y="-16"/>
    </contour>
  </outline>
</glyph>
<glyph name="u" format="1">
  <advance width="1142"/>
  <unicode hex="0075"/>
  <outline>
    <contour>
      <point x="575" y="1023" type="move" name="top"/>
    </contour>
    <contour>
      <point x="478" y="-24" type="curve" smooth="yes"/>
      <point x="623" y="-24"/>
      <point x="725" y="29"/>
      <point x="796" y="123" type="curve"/>
      <point x="796" y="0" type="line"/>
      <point x="1018" y="0" type="line"/>
      <point x="1018" y="1023" type="line"/>
      <point x="796" y="1023" type="line"/>
      <point x="796" y="534" type="line" smooth="yes"/>
      <point x="796" y="336"/>
      <point x="738" y="133"/>
      <point x="521" y="133" type="curve" smooth="yes"/>
      <point x="384" y="133"/>
      <point x="335" y="225"/>
      <point x="335" y="420" type="curve" smooth="yes"/>
      <point x="335" y="1023" type="line"/>
      <point x="113" y="1023" type="line"/>
      <point x="113" y="423" type="line" smooth="yes"/>
      <point x="113" y="215"/>
      <point x="158" y="-24"/>
    </contour>
  </outline>
</glyph>
<glyph name="v" format="1">
  <advance width="960"/>
  <unicode hex="0076"/>
  <outline>
    <contour>
      <point x="377" y="0" type="line"/>
      <point x="563" y="0" type="line"/>
      <point x="950" y="1023" type="line"/>
      <point x="737" y="1023" type="line"/>
      <point x="483" y="286" type="line"/>
      <point x="234" y="1023" type="line"/>
      <point x="10" y="1023" type="line"/>
    </contour>
  </outline>
</glyph>
<glyph name="brokenbar" format="1">
  <advance width="416"/>
  <unicode hex="00A6"/>
  <outline>
    <contour>
      <point x="96" y="-198" type="line"/>
      <point x="327" y="-198" type="line"/>
      <point x="327" y="475" type="line"/>
      <point x="96" y="475" type="line"/>
    </contour>
    <contour>
      <point x="96" y="842" type="line"/>
      <point x="327" y="842" type="line"/>
      <point x="327" y="1504" type="line"/>
      <point x="96" y="1504" type="line"/>
    </contour>
  </outline>
</glyph>
<glyph name="twosuperior" format="1">
  <advance width="1248"/>
  <unicode hex="00B2"/>
  <outline>
    <contour>
      <point x="288" y="454" type="curve"/>
      <point x="927" y="454" type="line"/>
      <point x="927" y="576" type="line"/>
      <point x="458" y="576" type="line"/>
      <point x="596" y="787"/>
      <point x="935" y="877"/>
      <point x="926" y="1179" type="curve" smooth="yes"/>
      <point x="919" y="1389"/>
      <point x="795" y="1489"/>
      <point x="608" y="1489" type="curve" smooth="yes"/>
      <point x="451" y="1489"/>
      <point x="341" y="1426"/>
      <point x="257" y="1248" type="curve"/>
      <point x="255" y="1249"/>
      <point x="392" y="1195"/>
      <point x="392" y="1195" type="curve"/>
      <point x="454" y="1312"/>
      <point x="513" y="1368"/>
      <point x="617" y="1368" type="curve" smooth="yes"/>
      <point x="717" y="1368"/>
      <point x="772" y="1289"/>
      <point x="772" y="1184" type="curve" smooth="yes"/>
      <point x="772" y="857"/>
      <point x="291" y="842"/>
    </contour>
  </outline>
</glyph>
<glyph name="threesuperior" format="1">
  <advance width="1317"/>
  <unicode hex="00B3"/>
  <outline>
    <contour>
      <point x="652" y="440" type="curve" smooth="yes"/>
      <point x="866" y="439"/>
      <point x="978" y="594"/>
      <point x="978" y="732" type="curve"/>
      <point x="979" y="857"/>
      <point x="933" y="982"/>
      <point x="784" y="1028" type="curve"/>
      <point x="899" y="1071"/>
      <point x="929" y="1163"/>
      <point x="929" y="1261" type="curve" smooth="yes"/>
      <point x="929" y="1399"/>
      <point x="817" y="1490"/>
      <point x="644" y="1490" type="curve" smooth="yes"/>
      <point x="526" y="1490"/>
      <point x="432" y="1437"/>
      <point x="359" y="1329" type="curve"/>
      <point x="470" y="1264" type="line"/>
      <point x="528" y="1348"/>
      <point x="579" y="1370"/>
      <point x="649" y="1370" type="curve" smooth="yes"/>
      <point x="731" y="1370"/>
      <point x="783" y="1318"/>
      <point x="783" y="1250" type="curve" smooth="yes"/>
      <point x="783" y="1157"/>
      <point x="761" y="1078"/>
      <point x="569" y="1079" type="curve"/>
      <point x="569" y="963" type="line"/>
      <point x="723" y="963"/>
      <point x="830" y="920"/>
      <point x="823" y="731" type="curve" smooth="yes"/>
      <point x="821" y="640"/>
      <point x="772" y="557"/>
      <point x="638" y="561" type="curve" smooth="yes"/>
      <point x="536" y="566"/>
      <point x="501" y="627"/>
      <point x="468" y="718" type="curve"/>
      <point x="337" y="677" type="line"/>
      <point x="379" y="504"/>
      <point x="494" y="441"/>
    </contour>
  </outline>
</glyph>
<glyph name="acute" format="1">
  <advance width="496"/>
  <unicode hex="00B4"/>
  <outline>
    <contour>
      <point x="81" y="1023" type="move" name="_top"/>
    </contour>
    <contour>
      <point x="-6" y="1142" type="line"/>
      <point x="143" y="1143" type="line"/>
      <point x="500" y="1463" type="line"/>
      <point x="196" y="1463" type="line"/>
    </contour>
  </outline>
</glyph>
<glyph name="guillemotright" format="1">
  <advance width="946"/>
  <unicode hex="00BB"/>
  <outline>
    <contour>
      <point x="-16" y="227" type="line"/>
      <point x="441" y="494" type="line"/>
      <point x="441" y="806" type="line"/>
      <point x="-16" y="1072" type="line"/>
      <point x="-16" y="850" type="line"/>
      <point x="285" y="650" type="line"/>
      <point x="-16" y="449" type="line"/>
    </contour>
    <contour>
      <point x="482" y="227" type="line"/>
      <point x="938" y="494" type="line"/>
      <point x="938" y="806" type="line"/>
      <point x="482" y="1072" type="line"/>
      <point x="482" y="850" type="line"/>
      <point x="783" y="650" type="line"/>
      <point x="482" y="449" type="line"/>
    </contour>
  </outline>
</glyph>
<glyph name="multiply" format="1">
  <advance width="734"/>
  <unicode hex="00D7"/>
  <outline>
    <contour>
      <point x="202" y="179" type="line"/>
      <point x="361" y="338" type="line"/>
      <point x="520" y="179" type="line"/>
      <point x="644" y="303" type="line"/>
      <point x="484" y="462" type="line"/>
      <point x="644" y="620" type="line"/>
      <point x="520" y="744" type="line"/>
      <point x="361" y="585" type="line"/>
      <point x="202" y="744" type="line"/>
      <point x="79" y="620" type="line"/>
      <point x="238" y="462" type="line"/>
      <point x="79" y="303" type="line"/>
    </contour>
  </outline>
</glyph>
<glyph name="Oslash" format="1">
  <advance width="1497"/>
  <unicode hex="00D8"/>
  <outline>
    <contour>
      <point x="368" y="-216" type="line"/>
      <point x="1258" y="1603" type="line"/>
      <point x="1126" y="1672" type="line"/>
      <point x="235" y="-146" type="line"/>
    </contour>
    <component base="O"/>
  </outline>
</glyph>
<glyph name="Thorn" format="1">
  <advance width="1261"/>
  <unicode hex="00DE"/>
  <outline>
    <contour>
      <point x="140" y="0" type="line"/>
      <point x="388" y="0" type="line"/>
      <point x="388" y="335" type="line"/>
      <point x="518" y="335" type="line" smooth="yes"/>
      <point x="1050" y="335"/>
      <point x="1227" y="450"/>
      <point x="1227" y="781" type="curve" smooth="yes"/>
      <point x="1227" y="1070"/>
      <point x="1055" y="1206"/>
      <point x="577" y="1206" type="curve" smooth="yes"/>
      <point x="388" y="1206" type="line"/>
      <point x="388" y="1464" type="line"/>
      <point x="140" y="1464" type="line"/>
    </contour>
    <contour>
      <point x="388" y="513" type="line"/>
      <point x="388" y="1026" type="line"/>
      <point x="554" y="1026" type="line" smooth="yes"/>
      <point x="861" y="1026"/>
      <point x="993" y="983"/>
      <point x="993" y="782" type="curve" smooth="yes"/>
      <point x="993" y="543"/>
      <point x="862" y="513"/>
      <point x="574" y="513" type="curve" smooth="yes"/>
    </contour>
  </outline>
</glyph>
<glyph name="germandbls" format="1">
  <advance width="1199"/>
  <unicode hex="00DF"/>
  <outline>
    <contour>
      <point x="99" y="0" type="line"/>
      <point x="331" y="0" type="line"/>
      <point x="331" y="1134" type="line" smooth="yes"/>
      <point x="331" y="1251"/>
      <point x="420" y="1332"/>
      <point x="565" y="1329" type="curve" smooth="yes"/>
      <point x="706" y="1327"/>
      <point x="749" y="1276"/>
      <point x="749" y="1209" type="curve" smooth="yes"/>
      <point x="749" y="996"/>
      <point x="429" y="1047"/>
      <point x="430" y="816" type="curve" smooth="yes"/>
      <point x="430" y="566"/>
      <point x="895" y="548"/>
      <point x="892" y="335" type="curve" smooth="yes"/>
      <point x="890" y="198"/>
      <point x="712" y="185"/>
      <point x="441" y="185" type="curve"/>
      <point x="441" y="0" type="line"/>
      <point x="481" y="0" type="line" smooth="yes"/>
      <point x="1046" y="0"/>
      <point x="1122" y="118"/>
      <point x="1126" y="336" type="curve" smooth="yes"/>
      <point x="1130" y="654"/>
      <point x="659" y="731"/>
      <point x="659" y="823" type="curve" smooth="yes"/>
      <point x="658" y="879"/>
      <point x="968" y="923"/>
      <point x="963" y="1203" type="curve" smooth="yes"/>
      <point x="961" y="1372"/>
      <point x="834" y="1486"/>
      <point x="568" y="1492" type="curve" smooth="yes"/>
      <point x="327" y="1497"/>
      <point x="99" y="1373"/>
      <point x="99" y="1151" type="curve" smooth="yes"/>
    </contour>
  </outline>
</glyph>
<glyph name="eth" format="1">
  <advance width="1053"/>
  <unicode hex="00F0"/>
  <outline>
    <contour>
      <point x="518" y="-24" type="curve" smooth="yes"/>
      <point x="849" y="-27"/>
      <point x="996" y="213"/>
      <point x="996" y="529" type="curve" smooth="yes"/>
      <point x="996" y="774"/>
      <point x="935" y="1024"/>
      <point x="774" y="1200" type="curve"/>
      <point x="941" y="1309" type="line"/>
      <point x="859" y="1424" type="line"/>
      <point x="663" y="1296" type="line"/>
      <point x="541" y="1380"/>
      <point x="379" y="1432"/>
      <point x="169" y="1432" type="curve"/>
      <point x="169" y="1286" type="line"/>
      <point x="307" y="1286"/>
      <point x="419" y="1252"/>
      <point x="508" y="1195" type="curve"/>
      <point x="373" y="1107" type="line"/>
      <point x="455" y="992" type="line"/>
      <point x="621" y="1100" type="line"/>
      <point x="709" y="1005"/>
      <point x="757" y="885"/>
      <point x="771" y="774" type="curve"/>
      <point x="708" y="864"/>
      <point x="610" y="908"/>
      <point x="503" y="908" type="curve" smooth="yes"/>
      <point x="280" y="908"/>
      <point x="60" y="746"/>
      <point x="60" y="454" type="curve" smooth="yes"/>
      <point x="60" y="208"/>
      <point x="217" y="-21"/>
    </contour>
    <contour>
      <point x="517" y="146" type="curve" smooth="yes"/>
      <point x="389" y="155"/>
      <point x="282" y="259"/>
      <point x="282" y="444" type="curve" smooth="yes"/>
      <point x="282" y="617"/>
      <point x="383" y="736"/>
      <point x="523" y="736" type="curve" smooth="yes"/>
      <point x="618" y="736"/>
      <point x="685" y="689"/>
      <point x="777" y="588" type="curve"/>
      <point x="783" y="562"/>
      <point x="784" y="535"/>
      <point x="784" y="511" type="curve" smooth="yes"/>
      <point x="784" y="315"/>
      <point x="706" y="133"/>
    </contour>
  </outline>
</glyph>
<glyph name="divide" format="1">
  <advance width="1024"/>
  <unicode hex="00F7"/>
  <outline>
    <contour>
      <point x="325" y="171" type="line"/>
      <point x="600" y="171" type="line"/>
      <point x="600" y="397" type="line"/>
      <point x="325" y="397" type="line"/>
    </contour>
    <contour>
      <point x="91" y="523" type="line"/>
      <point x="841" y="523" type="line"/>
      <point x="841" y="672" type="line"/>
      <point x="91" y="672" type="line"/>
    </contour>
    <contour>
      <point x="325" y="797" type="line"/>
      <point x="600" y="797" type="line"/>
      <point x="600" y="1024" type="line"/>
      <point x="325" y="1024" type="line"/>
    </contour>
  </outline>
</glyph>
<glyph name="oslash" format="1">
  <advance width="1104"/>
  <unicode hex="00F8"/>
  <outline>
    <contour>
      <point x="297" y="-200" type="line"/>
      <point x="947" y="1175" type="line"/>
      <point x="835" y="1234" type="line"/>
      <point x="182" y="-141" type="line"/>
    </contour>
    <component base="o"/>
  </outline>
</glyph>
<glyph name="dcroat" format="1">
  <advance width="1137"/>
  <unicode hex="0111"/>
  <outline>
    <contour>
      <point x="591" y="1172" type="line"/>
      <point x="1146" y="1172" type="line"/>
      <point x="1146" y="1307" type="line"/>
      <point x="591" y="1307" type="line"/>
    </contour>
    <component base="d"/>
  </outline>
</glyph>
<glyph name="Eng" format="1">
  <advance width="1496"/>
  <unicode hex="014A"/>
  <outline>
    <contour>
      <point x="876" y="-465" type="line"/>
      <point x="1160" y="-466"/>
      <point x="1362" y="-382"/>
      <point x="1362" y="-17" type="curve" smooth="yes"/>
      <point x="1362" y="529" type="line"/>
      <point x="1163" y="529" type="line"/>
      <point x="1163" y="-12" type="line"/>
      <point x="1163" y="-226"/>
      <point x="1086" y="-295"/>
      <point x="879" y="-299" type="curve"/>
    </contour>
    <component base="N"/>
  </outline>
</glyph>
<glyph name="oe" format="1">
  <advance width="2141"/>
  <unicode hex="0153"/>
  <outline>
    <contour>
      <point x="1654" y="1023" type="move" name="top"/>
    </contour>
    <contour>
      <point x="1757" y="0" type="move" name="ogonek"/>
    </contour>
    <contour>
      <point x="551" y="-24" type="curve" smooth="yes"/>
      <point x="705" y="-24"/>
      <point x="840" y="35"/>
      <point x="911" y="157" type="curve"/>
      <point x="965" y="54"/>
      <point x="1104" y="-24"/>
      <point x="1263" y="-24" type="curve" smooth="yes"/>
      <point x="1465" y="-24"/>
      <point x="1609" y="98"/>
      <point x="1656" y="276" type="curve"/>
      <point x="1490" y="313" type="line"/>
      <point x="1455" y="220"/>
      <point x="1397" y="134"/>
      <point x="1260" y="134" type="curve" smooth="yes"/>
      <point x="1080" y="134"/>
      <point x="1022" y="309"/>
      <point x="1019" y="463" type="curve"/>
      <point x="1670" y="463" type="line"/>
      <point x="1672" y="480"/>
      <point x="1673" y="560"/>
      <point x="1673" y="569" type="curve" smooth="yes"/>
      <point x="1673" y="842"/>
      <point x="1539" y="1047"/>
      <point x="1254" y="1047" type="curve" smooth="yes"/>
      <point x="1106" y="1047"/>
      <point x="979" y="975"/>
      <point x="910" y="858" type="curve"/>
      <point x="841" y="979"/>
      <point x="704" y="1047"/>
      <point x="551" y="1047" type="curve" smooth="yes"/>
      <point x="262" y="1047"/>
      <point x="84" y="867"/>
      <point x="84" y="512" type="curve" smooth="yes"/>
      <point x="84" y="158"/>
      <point x="262" y="-24"/>
    </contour>
    <contour>
      <point x="551" y="133" type="curve" smooth="yes"/>
      <point x="349" y="133"/>
      <point x="311" y="325"/>
      <point x="311" y="512" type="curve" smooth="yes"/>
      <point x="311" y="699"/>
      <point x="349" y="890"/>
      <point x="551" y="890" type="curve" smooth="yes"/>
      <point x="753" y="890"/>
      <point x="791" y="699"/>
      <point x="791" y="512" type="curve" smooth="yes"/>
      <point x="791" y="325"/>
      <point x="753" y="133"/>
    </contour>
    <contour>
      <point x="1019" y="609" type="line"/>
      <point x="1022" y="712"/>
      <point x="1069" y="889"/>
      <point x="1249" y="889" type="curve" smooth="yes"/>
      <point x="1406" y="889"/>
      <point x="1465" y="794"/>
      <point x="1465" y="609" type="curve"/>
    </contour>
  </outline>
</glyph>
<glyph name="Tbar" format="1">
  <advance width="1119"/>
  <unicode hex="0166"/>
  <outline>
    <contour>
      <point x="587" y="1464" type="move" name="_top"/>
    </contour>
    <contour>
      <point x="251" y="646" type="line"/>
      <point x="885" y="646" type="line"/>
      <point x="885" y="803" type="line"/>
      <point x="251" y="803" type="line"/>
    </contour>
    <component base="T"/>
  </outline>
</glyph>
<glyph name="uni0237" format="1">
  <advance width="518"/>
  <unicode hex="0237"/>
  <outline>
    <contour>
      <point x="303" y="1023" type="move" name="top"/>
    </contour>
    <contour>
      <point x="133" y="-388" type="curve" smooth="yes"/>
      <point x="323" y="-388"/>
      <point x="415" y="-317"/>
      <point x="415" y="-47" type="curve" smooth="yes"/>
      <point x="415" y="1023" type="line"/>
      <point x="192" y="1023" type="line"/>
      <point x="192" y="-91" type="line" smooth="yes"/>
      <point x="192" y="-176"/>
      <point x="152" y="-207"/>
      <point x="97" y="-207" type="curve" smooth="yes"/>
      <point x="64" y="-207"/>
      <point x="21" y="-196"/>
      <point x="-23" y="-176" type="curve"/>
      <point x="-66" y="-342" type="line"/>
      <point x="-17" y="-370"/>
      <point x="62" y="-388"/>
    </contour>
  </outline>
</glyph>
<glyph name="tilde" format="1">
  <advance width="798"/>
  <unicode hex="02DC"/>
  <outline>
    <contour>
      <point x="419" y="1023" type="move" name="_top"/>
    </contour>
    <contour>
      <point x="602" y="1191" type="curve" smooth="yes"/>
      <point x="675" y="1191"/>
      <point x="703" y="1279"/>
      <point x="703" y="1388" type="curve" smooth="yes"/>
      <point x="703" y="1406"/>
      <point x="703" y="1424"/>
      <point x="701" y="1442" type="curve"/>
      <point x="565" y="1442" type="line"/>
      <point x="565" y="1383"/>
      <point x="553" y="1368"/>
      <point x="527" y="1368" type="curve" smooth="yes"/>
      <point x="445" y="1368"/>
      <point x="355" y="1451"/>
      <point x="223" y="1451" type="curve" smooth="yes"/>
      <point x="156" y="1451"/>
      <point x="105" y="1388"/>
      <point x="105" y="1264" type="curve" smooth="yes"/>
      <point x="105" y="1244"/>
      <point x="106" y="1223"/>
      <point x="109" y="1201" type="curve"/>
      <point x="244" y="1201" type="line"/>
      <point x="244" y="1261"/>
      <point x="268" y="1280"/>
      <point x="292" y="1280" type="curve"/>
      <point x="412" y="1272"/>
      <point x="485" y="1191"/>
    </contour>
  </outline>
</glyph>
<glyph name="commaturnedabovecomb" format="1">
  <advance width="600"/>
  <unicode hex="0312"/>
  <outline>
    <contour>
      <point x="320" y="1023" type="move" name="_top"/>
    </contour>
    <contour>
      <point x="182" y="1205" type="line"/>
      <point x="459" y="1205" type="line"/>
      <point x="459" y="1453" type="line"/>
      <point x="337" y="1466" type="line"/>
      <point x="336" y="1538"/>
      <point x="397" y="1620"/>
      <point x="432" y="1653" type="curve"/>
      <point x="359" y="1750" type="line"/>
      <point x="217" y="1670"/>
      <point x="181" y="1563"/>
      <point x="182" y="1359" type="curve"/>
    </contour>
  </outline>
</glyph>
<glyph name="quoteleft" format="1">
  <advance width="330"/>
  <unicode hex="2018"/>
  <outline>
    <contour>
      <point x="19" y="992" type="line"/>
      <point x="253" y="992" type="line"/>
      <point x="253" y="1014"/>
      <point x="253" y="1035"/>
      <point x="253" y="1057" type="curve" smooth="yes"/>
      <point x="253" y="1100"/>
      <point x="253" y="1144"/>
      <point x="253" y="1187" type="curve"/>
      <point x="159" y="1200" type="line"/>
      <point x="159" y="1298"/>
      <point x="180" y="1324"/>
      <point x="237" y="1420" type="curve"/>
      <point x="236" y="1420"/>
      <point x="145" y="1468"/>
      <point x="145" y="1469" type="curve"/>
      <point x="21" y="1374"/>
      <point x="19" y="1244"/>
      <point x="19" y="1103" type="curve" smooth="yes"/>
      <point x="19" y="1099"/>
      <point x="19" y="1094"/>
      <point x="19" y="1089" type="curve" smooth="yes"/>
    </contour>
  </outline>
</glyph>
<glyph name="uni2206" format="1">
  <advance width="1293"/>
  <unicode hex="2206"/>
  <outline>
    <contour>
      <point x="65" y="0" type="line"/>
      <point x="1232" y="0" type="line"/>
      <point x="1232" y="85" type="line"/>
      <point x="761" y="1537" type="line"/>
      <point x="582" y="1537" type="line"/>
      <point x="65" y="85" type="line"/>
    </contour>
    <contour>
      <point x="255" y="202" type="line"/>
      <point x="615" y="1252" type="line"/>
      <point x="647" y="1370" type="line"/>
      <point x="681" y="1252" type="line"/>
      <point x="1018" y="202" type="line"/>
    </contour>
  </outline>
</glyph>
<glyph name="infinity" format="1">
  <advance width="1597"/>
  <unicode hex="221E"/>
  <outline>
    <contour>
      <point x="1166" y="296" type="curve" smooth="yes"/>
      <point x="1423" y="295"/>
      <point x="1552" y="518"/>
      <point x="1552" y="738" type="curve" smooth="yes"/>
      <point x="1552" y="952"/>
      <point x="1430" y="1164"/>
      <point x="1182" y="1170" type="curve" smooth="yes"/>
      <point x="1036" y="1173"/>
      <point x="874" y="1084"/>
      <point x="783" y="953" type="curve"/>
      <point x="721" y="1074"/>
      <point x="576" y="1159"/>
      <point x="430" y="1159" type="curve" smooth="yes"/>
      <point x="166" y="1159"/>
      <point x="34" y="945"/>
      <point x="34" y="732" type="curve" smooth="yes"/>
      <point x="34" y="516"/>
      <point x="167" y="300"/>
      <point x="432" y="300" type="curve" smooth="yes"/>
      <point x="574" y="300"/>
      <point x="709" y="395"/>
      <point x="756" y="533" type="curve"/>
      <point x="831" y="393"/>
      <point x="998" y="296"/>
    </contour>
    <contour>
      <point x="430" y="516" type="curve" smooth="yes"/>
      <point x="289" y="516"/>
      <point x="219" y="622"/>
      <point x="219" y="729" type="curve" smooth="yes"/>
      <point x="219" y="834"/>
      <point x="288" y="939"/>
      <point x="426" y="939" type="curve" smooth="yes"/>
      <point x="530" y="939"/>
      <point x="640" y="836"/>
      <point x="692" y="689" type="curve"/>
      <point x="636" y="587"/>
      <point x="528" y="516"/>
    </contour>
    <contour>
      <point x="1162" y="509" type="curve" smooth="yes"/>
      <point x="1032" y="509"/>
      <point x="905" y="632"/>
      <point x="850" y="809" type="curve"/>
      <point x="910" y="889"/>
      <point x="1025" y="942"/>
      <point x="1136" y="942" type="curve" smooth="yes"/>
      <point x="1223" y="942"/>
      <point x="1367" y="894"/>
      <point x="1367" y="719" type="curve" smooth="yes"/>
      <point x="1367" y="612"/>
      <point x="1299" y="509"/>
    </contour>
  </outline>
</glyph>
<glyph name="greaterequal" format="1">
  <advance width="1051"/>
  <unicode hex="2265"/>
  <outline>
    <contour>
      <point x="48" y="255" type="line"/>
      <point x="997" y="519" type="line"/>
      <point x="997" y="723" type="line"/>
      <point x="48" y="1042" type="line"/>
      <point x="48" y="824" type="line"/>
      <point x="747" y="633" type="line"/>
      <point x="48" y="472" type="line"/>
    </contour>
    <contour>
      <point x="52" y="0" type="line"/>
      <point x="1014" y="0" type="line"/>
      <point x="1014" y="138" type="line"/>
      <point x="52" y="138" type="line"/>
    </contour>
  </outline>
</glyph>
<glyph name="lc_ascender_stem_3" format="1">
  <advance width="1078"/>
  <outline>
    <contour>
      <point x="819" y="0" type="line"/>
      <point x="990" y="0" type="line"/>
      <point x="990" y="1474" type="line"/>
      <point x="767" y="1474" type="line"/>
      <point x="767" y="732" type="line"/>
    </contour>
  </outline>
</glyph>
<glyph name="lc_curved_stem" format="1">
  <advance width="1086"/>
  <outline>
    <contour>
      <point x="688" y="1166" type="move" name="top"/>
    </contour>
    <contour>
      <point x="794" y="0" type="line"/>
      <point x="1017" y="0" type="line"/>
      <point x="1017" y="597" type="line" smooth="yes"/>
      <point x="1017" y="803"/>
      <point x="972" y="1044"/>
      <point x="649" y="1044" type="curve" smooth="yes"/>
      <point x="396" y="1044"/>
      <point x="281" y="884"/>
      <point x="227" y="626" type="curve"/>
      <point x="333" y="490" type="line" smooth="yes"/>
      <point x="333" y="687"/>
      <point x="387" y="889"/>
      <point x="600" y="889" type="curve" smooth="yes"/>
      <point x="743" y="889"/>
      <point x="794" y="799"/>
      <point x="794" y="602" type="curve" smooth="yes"/>
    </contour>
  </outline>
</glyph>
<glyph name="lc_descender_stem" format="1">
  <advance width="1057"/>
  <outline>
    <contour>
      <point x="47" y="-373" type="line"/>
      <point x="269" y="-373" type="line"/>
      <point x="269" y="752" type="line"/>
      <point x="242" y="1023" type="line"/>
      <point x="47" y="1023" type="line"/>
    </contour>
  </outline>
</glyph>
<glyph name="lc_main_stem" format="1">
  <advance width="1086"/>
  <outline>
    <contour>
      <point x="94" y="0" type="line"/>
      <point x="316" y="0" type="line"/>
      <point x="316" y="1023" type="line"/>
      <point x="94" y="1023" type="line"/>
    </contour>
  </outline>
</glyph>
<glyph name="middot" format="1">
  <advance width="600"/>
  <outline>
    <contour>
      <point x="168" y="523" type="line"/>
      <point x="442" y="523" type="line"/>
      <point x="442" y="767" type="line"/>
      <point x="168" y="767" type="line"/>
    </contour>
  </outline>
</glyph>
